HIERARCHY
ROOT Hips
{
	OFFSET -14.64140 90.27770 -84.91600
	CHANNELS 6 Xposition Yposition Zposition Zrotation Xrotation Yrotation
	JOINT Spine
	{
		OFFSET 0.00000 13.20850 -1.60436
		CHANNELS 3 Zrotation Xrotation Yrotation
		JOINT Spine1
		{
			OFFSET 0.00000 8.61716 0.00000
			CHANNELS 3 Zrotation Xrotation Yrotation
			JOINT Spine2
			{
				OFFSET 0.00000 8.61717 0.00000
				CHANNELS 3 Zrotation Xrotation Yrotation
				JOINT Spine3
				{
					OFFSET 0.00000 8.61717 0.00000
					CHANNELS 3 Zrotation Xrotation Yrotation
					JOINT Neck
					{
						OFFSET 0.00000 11.07920 1.10792
						CHANNELS 3 Zrotation Xrotation Yrotation
						JOINT Neck1
						{
							OFFSET 0.00000 7.08032 0.00000
							CHANNELS 3 Zrotation Xrotation Yrotation
							JOINT Head
							{
								OFFSET 0.00000 7.08031 0.00000
								CHANNELS 3 Zrotation Xrotation Yrotation
								End site
								{
									OFFSET 0.00000 0.00000 0.00000
								}
							}
						}
					}
					JOINT RightShoulder
					{
						OFFSET -0.01000 7.91373 5.19711
						CHANNELS 3 Zrotation Xrotation Yrotation
						JOINT RightArm
						{
							OFFSET -18.41580 0.00000 0.00000
							CHANNELS 3 Zrotation Xrotation Yrotation
							JOINT RightForeArm
							{
								OFFSET -29.11090 0.00000 0.00000
								CHANNELS 3 Zrotation Xrotation Yrotation
								JOINT RightHand
								{
									OFFSET -24.65040 0.00000 0.00000
									CHANNELS 3 Zrotation Xrotation Yrotation
									JOINT RightHandThumb1
									{
										OFFSET -5.35114 -0.85590 3.97906
										CHANNELS 3 Zrotation Xrotation Yrotation
										JOINT RightHandThumb2
										{
											OFFSET -4.52789 0.00000 0.00000
											CHANNELS 3 Zrotation Xrotation Yrotation
											JOINT RightHandThumb3
											{
												OFFSET -2.46976 0.00000 0.00000
												CHANNELS 3 Zrotation Xrotation Yrotation
												End site
												{
													OFFSET 0.00000 0.00000 0.00000
												}
											}
										}
									}
									JOINT RightHandIndex1
									{
										OFFSET -14.26970 0.00000 2.88139
										CHANNELS 3 Zrotation Xrotation Yrotation
										JOINT RightHandIndex2
										{
											OFFSET -5.48836 0.00000 0.00000
											CHANNELS 3 Zrotation Xrotation Yrotation
											JOINT RightHandIndex3
											{
												OFFSET -3.01859 0.00000 0.00000
												CHANNELS 3 Zrotation Xrotation Yrotation
												End site
												{
													OFFSET 0.00000 0.00000 0.00000
												}
											}
										}
									}
									JOINT RightHandMiddle1
									{
										OFFSET -14.26970 0.00000 -0.09147
										CHANNELS 3 Zrotation Xrotation Yrotation
										JOINT RightHandMiddle2
										{
											OFFSET -6.17441 0.00000 0.00000
											CHANNELS 3 Zrotation Xrotation Yrotation
											JOINT RightHandMiddle3
											{
												OFFSET -3.56743 0.00000 0.00000
												CHANNELS 3 Zrotation Xrotation Yrotation
												End site
												{
													OFFSET 0.00000 0.00000 0.00000
												}
											}
										}
									}
									JOINT RightHandRing1
									{
										OFFSET -12.69180 0.00000 -3.06433
										CHANNELS 3 Zrotation Xrotation Yrotation
										JOINT RightHandRing2
										{
											OFFSET -5.62556 0.00000 0.00000
											CHANNELS 3 Zrotation Xrotation Yrotation
											JOINT RightHandRing3
											{
												OFFSET -3.56744 0.00000 0.00000
												CHANNELS 3 Zrotation Xrotation Yrotation
												End site
												{
													OFFSET 0.00000 0.00000 0.00000
												}
											}
										}
									}
									JOINT RightHandPinky1
									{
										OFFSET -11.11390 0.00000 -6.03719
										CHANNELS 3 Zrotation Xrotation Yrotation
										JOINT RightHandPinky2
										{
											OFFSET -4.52789 0.00000 0.00000
											CHANNELS 3 Zrotation Xrotation Yrotation
											JOINT RightHandPinky3
											{
												OFFSET -2.46976 0.00000 0.00000
												CHANNELS 3 Zrotation Xrotation Yrotation
												End site
												{
													OFFSET 0.00000 0.00000 0.00000
												}
											}
										}
									}
								}
							}
						}
					}
					JOINT LeftShoulder
					{
						OFFSET 0.01000 7.91373 5.19711
						CHANNELS 3 Zrotation Xrotation Yrotation
						JOINT LeftArm
						{
							OFFSET 18.41580 0.00000 0.00000
							CHANNELS 3 Zrotation Xrotation Yrotation
							JOINT LeftForeArm
							{
								OFFSET 29.11090 0.00000 0.00000
								CHANNELS 3 Zrotation Xrotation Yrotation
								JOINT LeftHand
								{
									OFFSET 24.65040 0.00000 0.00000
									CHANNELS 3 Zrotation Xrotation Yrotation
									JOINT LeftHandThumb1
									{
										OFFSET 5.35114 -0.85590 3.97906
										CHANNELS 3 Zrotation Xrotation Yrotation
										JOINT LeftHandThumb2
										{
											OFFSET 4.52789 0.00000 0.00000
											CHANNELS 3 Zrotation Xrotation Yrotation
											JOINT LeftHandThumb3
											{
												OFFSET 2.46977 0.00000 0.00000
												CHANNELS 3 Zrotation Xrotation Yrotation
												End site
												{
													OFFSET 0.00000 0.00000 0.00000
												}
											}
										}
									}
									JOINT LeftHandIndex1
									{
										OFFSET 14.26970 0.00000 2.88139
										CHANNELS 3 Zrotation Xrotation Yrotation
										JOINT LeftHandIndex2
										{
											OFFSET 5.48836 0.00000 0.00000
											CHANNELS 3 Zrotation Xrotation Yrotation
											JOINT LeftHandIndex3
											{
												OFFSET 3.01859 0.00000 0.00000
												CHANNELS 3 Zrotation Xrotation Yrotation
												End site
												{
													OFFSET 0.00000 0.00000 0.00000
												}
											}
										}
									}
									JOINT LeftHandMiddle1
									{
										OFFSET 14.26970 0.00000 -0.09147
										CHANNELS 3 Zrotation Xrotation Yrotation
										JOINT LeftHandMiddle2
										{
											OFFSET 6.17440 0.00000 0.00000
											CHANNELS 3 Zrotation Xrotation Yrotation
											JOINT LeftHandMiddle3
											{
												OFFSET 3.56744 0.00000 0.00000
												CHANNELS 3 Zrotation Xrotation Yrotation
												End site
												{
													OFFSET 0.00000 0.00000 0.00000
												}
											}
										}
									}
									JOINT LeftHandRing1
									{
										OFFSET 12.69180 0.00000 -3.06433
										CHANNELS 3 Zrotation Xrotation Yrotation
										JOINT LeftHandRing2
										{
											OFFSET 5.62556 0.00000 0.00000
											CHANNELS 3 Zrotation Xrotation Yrotation
											JOINT LeftHandRing3
											{
												OFFSET 3.56744 0.00000 0.00000
												CHANNELS 3 Zrotation Xrotation Yrotation
												End site
												{
													OFFSET 0.00000 0.00000 0.00000
												}
											}
										}
									}
									JOINT LeftHandPinky1
									{
										OFFSET 11.11390 0.00000 -6.03719
										CHANNELS 3 Zrotation Xrotation Yrotation
										JOINT LeftHandPinky2
										{
											OFFSET 4.52789 0.00000 0.00000
											CHANNELS 3 Zrotation Xrotation Yrotation
											JOINT LeftHandPinky3
											{
												OFFSET 2.46976 0.00000 0.00000
												CHANNELS 3 Zrotation Xrotation Yrotation
												End site
												{
													OFFSET 0.00000 0.00000 0.00000
												}
											}
										}
									}
								}
							}
						}
					}
					JOINT pCube4
					{
						OFFSET 0.00000 10.91090 1.10792
						CHANNELS 3 Zrotation Xrotation Yrotation
						End site
						{
							OFFSET 0.00000 0.00000 0.00000
						}
					}
				}
			}
		}
	}
	JOINT RightUpLeg
	{
		OFFSET -9.98441 0.00000 0.00000
		CHANNELS 3 Zrotation Xrotation Yrotation
		JOINT RightLeg
		{
			OFFSET 0.00000 -42.11790 0.00000
			CHANNELS 3 Zrotation Xrotation Yrotation
			JOINT RightFoot
			{
				OFFSET 0.00000 -45.00020 -0.00001
				CHANNELS 3 Zrotation Xrotation Yrotation
				JOINT RightForeFoot
				{
					OFFSET 0.00000 -3.74820 0.00000
					CHANNELS 3 Zrotation Xrotation Yrotation
					JOINT RightToeBase
					{
						OFFSET 0.00000 0.06325 14.43120
						CHANNELS 3 Zrotation Xrotation Yrotation
						End site
						{
							OFFSET 0.00000 0.00000 0.00000
						}
					}
				}
			}
		}
	}
	JOINT LeftUpLeg
	{
		OFFSET 9.98441 0.00000 0.00000
		CHANNELS 3 Zrotation Xrotation Yrotation
		JOINT LeftLeg
		{
			OFFSET 0.00000 -42.11800 0.00000
			CHANNELS 3 Zrotation Xrotation Yrotation
			JOINT LeftFoot
			{
				OFFSET 0.00000 -45.00070 0.00000
				CHANNELS 3 Zrotation Xrotation Yrotation
				JOINT LeftForeFoot
				{
					OFFSET 0.00000 -3.74824 0.00000
					CHANNELS 3 Zrotation Xrotation Yrotation
					JOINT LeftToeBase
					{
						OFFSET 0.00000 0.06325 14.43110
						CHANNELS 3 Zrotation Xrotation Yrotation
						End site
						{
							OFFSET 0.00000 0.00000 0.00000
						}
					}
				}
			}
		}
	}
}
MOTION
Frames: 4
Frame Time: 0.050000
-0.004711080636351037 -0.039872001308845696 -0.044158878752709574 0.023302647428570016 -0.015278056662201701 -0.03364536187265761 -3.548955394583484 3.9837610343858545 -0.848712568666953 -0.8017753071621706 4.48956853734874 0.32552287155902965 -0.824074063165064 -0.16073539719350174 -1.6171122023605395 1.4714364401382534 0.4298692571794559 -0.8880143639563782 -0.9426066495796233 13.35634428235165 -1.1214978499277508 -0.25415174070653973 -0.9964161093185079 -3.4002297175119818 0.20546537172924695 -15.579748641259686 -0.2095459043519521 3.4359887293333564 -0.8482031873669788 -14.78459816126769 61.84132338554132 14.994257444407472 14.121870747821573 34.546069868517556 4.655034556142113 80.20632742211738 21.020583510045554 0.03195456890867076 -7.634943463852748 4.506486036200124 -0.1396540330103838 -1.5621207299224877 -0.037087688730984135 0.02405614458662749 -56.2076432903879 0.025186920566469016 0.012814571208989593 -56.203607397073554 -38.72023946335423 -0.03082306560741856 0.00570004311697974 0.010319551844790836 0.02916935305857671 -0.033808826820671496 -0.02082899373325266 -0.02591891906008369 -0.038699100693973656 -36.69846841533862 0.006453633470736713 -0.04831074500114556 0.00474027712703083 -0.012059517643534556 -0.011836943665497986 0.03847299684139505 -0.043276255751799345 -0.01620049794787248 -19.796252156525746 -0.016927197311845044 0.04057046012640412 0.04037982665155811 0.01579156343014459 -0.04286350385649752 0.0407686019090036 0.022028704466862514 0.021729266162368737 24.06257445630937 0.018150396377371092 -0.0302534070850344 28.882760052074705 -0.0007684300009460063 -0.04269078161330648 28.910391744755866 -0.034154476296417116 -0.038011948915225045 1.991760657962496 0.7126609723165704 13.365950379341854 -53.78739934789908 20.543239689920178 -39.525395626255246 9.322378277146221 -0.38114088943106217 -83.75843208934491 -18.402660427508263 10.590505633268092 -8.008654961154885 -0.4543661940242282 0.0997971575209477 -8.170766115027192 -0.008299802118161847 0.009873145035617079 44.571577652403526 0.04978840349310163 0.015237151553211325 44.58810217502535 12.473838992372235 -0.005863347425914241 0.03857995783666256 0.004381731144694248 0.017042094836062584 -0.009415738843900944 -0.004154748029485811 0.04684864602009459 -0.03846809589721382 11.072572141992248 0.014779519291339801 -0.029562579065337203 -0.028957071846240388 0.035984899892449664 -0.009106485520988783 0.02613313391980515 -0.007902961989006816 0.031644925249138416 4.816096935385629 -0.0476768026023857 -0.024892821589227968 0.020659990504830854 0.014644493235986012 -0.02203626007965943 -0.0034851334953886 -0.04830208129573431 0.013229568904404262 -5.5536002899183545 0.015304614387936382 0.011831091284907514 -6.767007350842568 -0.014173182604740767 -0.03204592785908596 -6.685826317395056 0.038950416577608796 0.015625797251950593 0.0050298185116990305 -0.029176500670631652 -0.006994914120945083 8.082617514922607 3.5134933102793866 -19.25988891559334 -0.03325685992484982 10.384442350830689 0.019366069818573767 -5.571885079687179 -15.698995869559809 3.2179587608084788 0.02727514441700963 0.024464182488875257 0.04336886811177618 -0.014008971999699861 4.679108172188484 0.04694649014744025 12.497028869756708 -8.228496168466 6.894589061117148 -0.013559093079837773 46.36091549789166 0.017704648825887636 -4.357724418982662 -14.750926260571505 -3.8421660377698754 -0.04195806210444612 -0.03145982186162505 -0.018606966845919254 0.0406966522694665 -10.758840735315719 0.029837384386488627 
0.029012443454369288 0.007587042938909213 -0.030045585823290102 0.02251316085256194 -0.017496664574478835 -0.005951984275574935 -3.456816613478218 3.9488890928405302 -0.8220183139409603 -0.7317165457340841 4.461140469766474 0.3470883455841277 -0.7567668931770182 -0.20335225809965657 -1.5112265854856144 1.4608484571948805 0.42751397088093246 -0.9173321830007829 -0.9756195678411548 13.322555657112643 -1.173930353184986 -0.21512282501077573 -1.0601974813210735 -3.4825842880883706 0.14775325706586867 -15.66653965381548 -0.2727370340337529 3.44179718005773 -0.9032858329065784 -14.797900279530456 61.39948731373469 14.890351826658694 14.13156017031902 32.52512105966666 4.886649812863829 79.54723162211573 22.153254363012298 0.07862055233282789 -7.6854462067388365 4.513138189048877 -0.17341804284668463 -1.604337800195559 0.0021475001605900856 0.029131759809531865 -56.206668942783594 -0.005519095120281673 -0.02922553690608048 -56.27602370828463 -38.75328665188911 -0.01773039412024969 -0.030954422056599852 0.013467415684000172 0.0400548053119506 0.04695091112591282 -0.01113140842500635 -0.036554815731698054 -0.00583424957173106 -36.64423311956765 -0.020868282560608287 0.026729785191784376 -0.011070845496450725 -0.009346788758141126 0.0171891532885997 -0.04617380620167355 0.01626907878772932 -0.04641042484390216 -19.80391978945984 0.04553455526606722 -0.03454379695006532 0.03321327263762159 -0.012957348056603792 0.04307757518389077 0.04181862812535713 -0.044773123632259604 -0.03443801333763716 24.0659670516842 -0.018365010043065774 0.0321804603725616 28.845526239837195 -0.03139847431126959 0.041164898284680104 28.912681911006203 -0.035752722004506396 -0.006645258426326042 2.0766198891231413 0.7382187639047739 13.414851710169126 -53.33023753281164 18.374992310584247 -40.0196337073635 11.203499824687373 -1.4614575934355916 -83.41591713889319 -19.34889079495091 11.108429972616939 -8.582655418726501 -0.43504863034186336 0.03966731249226467 -8.074171035866291 0.04866057341347295 0.009895024168347925 44.56377071644072 0.018609063193484605 0.022104943379853515 44.548049006750055 12.471426023239426 0.003280884631001907 -0.012438594696271541 0.04607589735124481 -0.00955416778406344 0.02477913458961119 -0.001187888678942321 0.03486383275960938 0.017928256847861323 11.093975661553563 0.013144137305000934 0.030071721352268935 -0.035767793532431084 0.031125529375973616 -0.04563683316645231 0.03572804513038183 0.008633935169851328 -0.02052160627126204 4.785573440886805 0.029630864126263083 -0.02398653523354378 -0.001727071229378703 0.03243052746374855 0.04620642761278182 -0.03173630941108233 -0.015354793401629855 0.013335599876130559 -5.603674078694683 0.013900630471001412 -0.03917947059075207 -6.753970958456292 -0.0446546596415895 -0.0002858522652419677 -6.734491826152391 0.03152581442712008 -0.008001300015155643 -0.04246425909702691 -0.0008538969298664842 0.03067661650088322 8.010588848902024 3.4629924132956984 -19.19031139354208 -0.04242578874938775 10.354673733806186 0.005589948148507306 -5.589764885419353 -15.663910030208468 3.2055604861742113 -0.03375995737055026 0.01714988153214171 -0.029680061288903208 -0.0032428183950429885 4.726572809346734 -0.01773299461389061 12.456035560501025 -8.234135013825819 6.88085487568613 -0.0355777097893899 46.373241034815834 -0.001622750272798476 -4.3347375861609185 -14.738718545893027 -3.8714413352188144 -0.013396262242496957 0.04980367372920236 -0.009540327540324703 0.02627347097720157 -10.719672946284842 0.027099586387350307 
0.029623574667117965 -0.004158514136256096 0.003465163049046342 0.03261853694295766 -0.003317029292940388 -0.030335026244273353 -3.2990617773214295 3.911397961268652 -0.8381985963894996 -0.7490488156008095 4.455052185274552 0.3541787852136028 -0.7231558521906969 -0.3338019395737504 -1.561636791228468 1.319634014393173 0.2703216087701903 -0.9292591304435757 -1.00422946421743 13.335703425500206 -1.2457260195839686 -0.20037461423846875 -1.0799605157186665 -3.494973952942125 0.14523835971394394 -15.820966790945652 -0.2608440202336474 3.534743621186105 -0.9326241062198181 -14.69993819075683 61.0078890121708 14.790706014124845 14.0548312155765 30.720720771266922 5.72166662337179 79.12872223292575 23.30190283347797 0.13729663455800006 -7.734685898125674 4.572337760643696 -0.13698121226349613 -1.5920459523925596 0.03698453232590054 -0.04502050815454713 -56.189221428622815 -0.014292650545511551 0.04617753952260911 -56.18639226421112 -38.753912899101834 -0.0029289056566540778 0.010917368113754232 -0.04830555143417551 -0.0017740237220018862 -0.03291641686820472 0.02147241697219419 -0.015402851871992225 0.0351152141870293 -36.73033735130508 -0.03852767519698111 0.02981953477252657 0.049991364014411066 -0.0493942809333076 -0.03778508296958238 0.04221492823300047 0.010126941565109881 -0.007104505733647792 -19.72155474665859 0.001568278248214799 -0.03479419819141944 0.03399531048890182 -0.0018966490305567093 -0.019348119085676435 -0.014455691278278655 0.04690018004170389 -0.03593486225247353 24.064197150344373 -0.04458280494013121 0.032935864359571326 28.861680214093077 -0.026925112612370142 0.042422504437973255 28.90051134987068 0.022156355392460143 -0.047395706562759383 2.330544178026293 0.786798420539999 13.508506981208086 -53.179632039937246 16.375235655113205 -40.88769788063698 12.601720032369196 -2.059258741498792 -83.24715974355317 -20.3591554267568 11.76922129559295 -9.253015822570106 -0.4937574185733155 0.08541983437631957 -8.106264437143293 0.011040878181430147 -0.041246990746289625 44.59701547608347 0.013543220509254822 0.021248128651650648 44.56609042420646 12.435589719259733 -0.04513184236015232 -0.016600389267882276 -0.0458995685492484 0.0009609054088662083 -0.006685416586606463 0.0326344440491177 0.04724329847044891 0.031891331684494435 11.074060896823404 -0.04863728706354604 0.014523650612312937 0.0445435305898423 -0.00869041355205773 -0.008865341765079797 -0.03876395867167551 -0.01155194563734667 -0.030891647012135107 4.8158683023691085 -0.037413161411435254 0.010228885742984205 0.03048183633106149 -0.041111321836251664 0.0075997663130806985 -0.010428927575171262 0.010738554229040388 -0.0009085463689971235 -5.590028205950892 0.01595531197657448 0.020752045235073673 -6.742708649648052 0.039497342024594234 -0.023529909193578006 -6.721027115281831 0.021983424126382763 -0.023560884425495237 0.03240543931453393 -0.0028877769862064675 0.04596242255013222 8.078977419116958 3.483155816449825 -19.200435706460663 0.02888366926863928 10.360529979579727 -0.032457333568948296 -5.619579114085836 -15.6847513402364 3.2208061695544123 -0.007269081569610961 0.03210187065382537 0.03972999423577485 -0.015414208947042828 4.693765124406813 0.011592926723870259 12.471565705489361 -8.239176111078638 6.903200624764399 0.012269704958045911 46.40188233349378 0.025615824672923893 -4.277415369161178 -14.763428346214491 -3.814925274712944 0.011471353478480727 0.0425950115637211 0.02285698110234232 -0.02826642902786432 -10.784431358289218 -0.021113562003637495 
-0.00024331850412043335 0.043435386957086826 -0.0029152918266817205 0.027142900722243252 -0.043085359657931505 -0.04841721747374053 -3.228391181731159 3.814106275940597 -0.8092207836547117 -0.617832356138245 4.448431622217627 0.31138226335128955 -0.6658328535356078 -0.41632731304114207 -1.4908618378973806 1.318689126598345 0.15428290074187795 -0.9208319980990946 -1.0171758758727152 13.413321818128626 -1.164321024573071 -0.2545480477343532 -1.198418121774037 -3.428222493328294 0.10960636959621688 -15.916085037415735 -0.2503489629464482 3.575673968192092 -0.9361177909477693 -14.66727578357601 60.588283620889555 14.721499749427986 13.906760706010331 29.21325126194829 7.054464165607496 78.76093854302422 24.246233739043664 0.15831099445922087 -7.657733947867299 4.554240272919792 -0.0883377796075093 -1.6022141423472218 -0.007077962323033632 0.02120438765485662 -56.22833128834443 0.031184280525472445 -0.0052299351593414435 -56.18517140653851 -38.732064888431 -0.025728579592942363 0.006790605942575901 0.034021427985949974 0.00422107228709337 -0.008573877282643423 -0.026552784971859842 0.008030547706722681 -0.049111226383010735 -36.68046720727275 -0.02293696206770249 0.008140462605154988 0.005358368418752514 0.029909655223770093 0.03476138050980722 -0.0027179051227920366 -0.013173397275857888 0.006767158211537708 -19.799234949331396 -0.01602260696096055 -0.011504825020072294 0.04836298848368838 -0.004351409055610572 -0.048096787915002534 0.02298645186343445 -0.04451018882575382 -0.008444620806428577 24.03828545937675 0.013381629336979013 0.031791409361666224 28.819784659383306 -0.029754547726468242 -0.0013041387434273685 28.875449327038147 0.038102405741145595 -0.03693034756339719 2.598583032247062 0.8525397244568219 13.591240093281053 -53.00841966516801 14.54218280447685 -41.763070825913616 13.581893434043083 -2.4551026985751334 -83.12855553530113 -21.286040713089758 12.517401436684938 -10.070704523411875 -0.4542497363414079 0.06470814755568242 -8.096559244373704 0.03559438769462142 -0.017879090244436034 44.60788866159936 0.018484915443927413 -0.011689752908296009 44.52080796378215 12.504537041447257 0.046537899333795936 -0.028879198353416187 0.01512075292403841 -0.02539826834227799 -0.013183320363314375 0.027610303338567767 0.029038953219824172 -0.041065723213675895 11.12956234919658 0.02476338358116853 -0.011697970359314917 -0.004652306471136986 -0.04207566843671284 0.005017870730982699 -0.02538844779739656 -0.02765297411619808 -0.03607408706565774 4.77232857623773 -0.013370656969110058 0.03751660871942318 -0.008357705216726484 0.02411318851402569 0.013444745258035512 0.002616405773131086 0.03537341417880495 -0.023693633577828072 -5.570780930877183 -0.04852531338871128 0.04438006246126139 -6.687993588549066 -0.02519607448251103 -0.03393437801084333 -6.743905925411284 0.030156005273666443 0.03282420004496087 -0.030213113343500388 0.029852257107645733 0.036186475987132295 8.029012178492021 3.511611486894194 -19.249499590103323 -0.0389143733953493 10.374718024211255 -0.033821915008950404 -5.654253026045686 -15.654899587045772 3.1724998736896475 0.01677354781572091 -0.019797231911019595 0.043766055205473754 -0.046877403767418155 4.729181831585114 0.04299778034597782 12.43317814018502 -8.25823231039429 6.860959005403981 0.009043026198720274 46.39708472011249 -0.029156850438008173 -4.308259693229855 -14.7819457890987 -3.8701464803221155 0.012717566247445593 -0.005851016119772214 0.026140951587429108 -0.04045048828930499 -10.719384722446877 -0.014467083458088743 
